# xmcd
#
# Track frame offsets:
#	150
#	53620
#	106659
#	152115
#	171221
#	267459
#
# Disc length: 4112 seconds
#
# Revision: 0
# Processed by: cddbd v1.5.2PL0 Copyright (c) Steve Scherf et al.
# Submitted via: dBpowerAMP V4.0
#
DISCID=45100e06
DTITLE=Life Like Liquid - Life Like Liquid - Disc 2
DYEAR=1900
DGENRE=Blues
TTITLE0=Crystal Winged Ship
TTITLE1=Toroidal Spheres
TTITLE2=Kadal
TTITLE3=Phosphorescence
TTITLE4=Green Sea Turtle
TTITLE5=Cloud Atlas
EXTD=
EXTT0=
EXTT1=
EXTT2=
EXTT3=
EXTT4=
EXTT5=
PLAYORDER=
